<?xml version="1.0" standalone="no"?>
<!DOCTYPE svg PUBLIC "-//W3C//DTD SVG 20010904//EN"
 "http://www.w3.org/TR/2001/REC-SVG-20010904/DTD/svg10.dtd">
<svg version="1.0" xmlns="http://www.w3.org/2000/svg"
 width="2176.000000pt" height="2176.000000pt" viewBox="0 0 2176.000000 2176.000000"
 preserveAspectRatio="xMidYMid meet">
<metadata>
Created by potrace 1.14, written by Peter Selinger 2001-2017
</metadata>
<g transform="translate(0.000000,2176.000000) scale(0.100000,-0.100000)"
fill="#000000" stroke="none">
<path d="M10929 15628 c-8 -20 -2 -78 8 -82 10 -4 11 -1 4 12 -14 26 -14 34 1
43 10 7 10 9 0 9 -7 0 -10 5 -7 10 3 6 4 10 1 10 -3 0 -6 -1 -7 -2z"/>
<path d="M10919 15526 c-1 -9 -2 -24 -2 -33 -1 -10 -6 -21 -12 -25 -6 -5 -6
-8 0 -8 6 0 10 -11 10 -25 0 -14 -4 -25 -8 -25 -5 0 -7 -8 -6 -17 1 -10 1 -20
0 -23 -1 -3 -4 -25 -6 -50 -7 -73 -14 -143 -20 -180 -3 -19 -7 -62 -9 -95 -3
-33 -7 -71 -10 -84 -3 -13 -6 -41 -8 -62 -1 -22 -4 -39 -7 -39 -4 0 -7 -24 -7
-53 -2 -51 -8 -107 -20 -197 -4 -25 -8 -65 -10 -90 -1 -25 -3 -45 -4 -45 -1 0
-3 -11 -5 -25 -1 -14 -5 -47 -9 -75 -4 -27 -9 -68 -11 -90 -2 -22 -7 -58 -10
-80 -3 -22 -8 -69 -11 -105 -3 -36 -10 -71 -16 -77 -7 -9 -7 -13 1 -13 7 0 10
-4 7 -8 -7 -11 -15 -58 -18 -104 -1 -21 -5 -38 -8 -38 -3 0 -6 -24 -7 -53 -2
-58 -9 -126 -18 -177 -3 -19 -9 -59 -12 -90 -5 -58 -10 -95 -13 -95 0 0 -3
-25 -6 -55 -7 -71 -12 -105 -14 -105 -1 0 -4 -20 -6 -45 -2 -25 -6 -58 -8 -75
-3 -16 -7 -46 -9 -65 -6 -42 -18 -127 -23 -155 -5 -26 5 -57 16 -50 24 15 400
23 588 12 l83 -5 -5 27 c-13 63 -18 98 -18 125 1 17 -2 34 -5 40 -4 5 -8 33
-10 60 -6 96 -8 111 -18 118 -6 5 -5 8 4 8 9 0 10 4 4 13 -9 12 -15 57 -17
124 -1 18 -4 33 -7 33 -4 0 -6 12 -7 28 0 15 -1 29 -1 32 -1 3 -4 25 -7 50 -2
25 -6 61 -9 80 -3 19 -7 63 -9 97 -3 35 -7 66 -9 70 -3 5 -8 33 -11 63 -4 30
-9 73 -12 95 -6 49 -10 82 -19 160 -3 33 -9 74 -11 90 -3 17 -7 50 -10 75 -2
25 -6 59 -8 75 -6 38 -17 129 -21 175 -2 19 -4 35 -5 35 -1 0 -4 18 -5 40 -5
67 -12 105 -20 113 -5 4 -5 -1 -2 -10 4 -10 3 -18 -1 -18 -4 0 -7 -12 -6 -27
1 -16 -4 -34 -10 -42 -9 -12 -8 -13 4 -6 12 7 13 6 4 -6 -10 -13 -15 -41 -18
-96 0 -13 -3 -23 -6 -23 -4 0 -6 -10 -7 -22 0 -13 -8 -70 -18 -128 -21 -127
-25 -156 -29 -196 -2 -17 -5 -35 -8 -40 -2 -5 -5 -22 -6 -39 -3 -31 -9 -70
-12 -70 -1 0 -3 -11 -4 -25 0 -14 -4 -29 -7 -35 -3 -5 -4 -20 -3 -32 0 -13 -2
-23 -7 -23 -5 0 -6 -8 -2 -17 3 -10 3 -15 -2 -11 -9 9 -11 80 -2 95 4 7 3 14
-3 18 -6 4 -7 11 -3 18 4 6 7 90 8 187 0 96 4 180 7 186 4 5 3 16 -2 24 -5 9
-5 19 2 27 7 9 7 13 -1 13 -9 0 -9 5 -1 20 8 14 8 20 0 20 -7 0 -8 6 -2 18 9
19 8 53 -2 70 -3 6 -2 13 2 16 5 3 7 27 5 53 -2 26 -3 53 -3 58 0 6 2 93 4
193 3 101 7 190 10 198 3 8 1 14 -4 14 -5 0 -7 6 -5 13 9 22 11 428 3 433 -4
3 -9 -2 -9 -10z"/>
<path d="M7130 14200 c0 -5 5 -10 11 -10 5 0 7 5 4 10 -3 6 -8 10 -11 10 -2 0
-4 -4 -4 -10z"/>
<path d="M14710 14158 c-14 -17 -39 -46 -57 -65 -18 -18 -29 -33 -26 -33 4 0
-7 -13 -25 -30 -18 -16 -30 -30 -26 -30 4 0 -1 -7 -12 -15 -10 -8 -16 -15 -12
-15 3 0 -11 -18 -33 -40 -21 -21 -39 -42 -39 -45 0 -3 -11 -16 -25 -29 -13
-13 -22 -26 -19 -29 3 -3 -4 -8 -15 -12 -12 -3 -19 -11 -16 -16 4 -5 -1 -12
-9 -15 -9 -3 -16 -10 -16 -16 0 -5 -11 -19 -25 -32 -14 -13 -25 -26 -25 -29 0
-3 -10 -17 -22 -30 -39 -42 -82 -91 -118 -137 -19 -24 -44 -54 -55 -65 -11
-12 -33 -38 -48 -58 -16 -21 -40 -49 -53 -62 -14 -14 -22 -25 -19 -25 3 0 -8
-13 -25 -30 -17 -16 -28 -30 -24 -30 3 0 -9 -15 -28 -33 -18 -19 -49 -54 -68
-78 -19 -24 -47 -56 -61 -71 -15 -15 -25 -29 -22 -31 2 -3 -8 -14 -23 -26 -15
-11 -23 -21 -19 -21 4 0 -3 -9 -16 -20 -13 -10 -20 -19 -15 -20 5 0 -3 -9 -18
-21 -14 -11 -26 -28 -26 -36 0 -9 -3 -14 -6 -10 -4 3 -15 -4 -25 -16 -10 -12
-18 -19 -19 -14 0 10 101 170 112 178 5 3 8 8 6 10 -1 2 23 45 55 95 31 50 57
96 57 102 0 5 7 12 15 16 8 3 15 12 15 21 0 8 5 15 10 15 6 0 10 6 10 13 0 7
9 23 19 34 11 12 18 23 15 25 -2 3 7 17 20 31 14 15 23 27 20 27 -3 0 3 12 13
28 10 15 25 39 33 55 7 15 17 27 22 27 5 0 6 5 3 10 -3 6 -2 10 3 10 6 0 12 7
16 15 9 25 -7 17 -49 -24 -22 -21 -62 -58 -90 -81 -27 -24 -49 -47 -48 -52 2
-4 -7 -8 -19 -8 -12 0 -19 -3 -15 -6 3 -4 -13 -22 -36 -41 -23 -20 -55 -48
-72 -64 -31 -29 -43 -40 -165 -149 -40 -36 -90 -82 -111 -102 -22 -20 -39 -35
-39 -33 0 2 -19 -16 -43 -38 -24 -23 -72 -67 -106 -97 -35 -30 -85 -76 -112
-102 -27 -27 -51 -48 -54 -48 -3 0 -26 -21 -50 -46 -25 -25 -45 -44 -45 -41 0
3 -17 -11 -39 -31 -21 -20 -67 -63 -102 -95 -77 -69 -166 -153 -160 -150 3 2
25 -14 78 -57 7 -6 29 -21 49 -35 20 -14 33 -25 28 -26 -5 0 -2 -3 7 -7 18 -7
116 -89 160 -134 15 -15 30 -24 33 -21 3 4 6 1 6 -5 0 -14 118 -131 125 -124
3 3 5 1 5 -4 0 -5 4 -15 9 -23 8 -12 12 -12 25 2 9 8 16 21 16 27 0 6 8 20 18
31 11 10 25 32 33 47 8 15 18 30 24 34 5 4 7 8 3 8 -4 0 4 12 17 26 14 15 22
30 19 35 -3 5 -1 9 4 9 5 0 17 16 28 35 10 19 22 35 25 35 4 0 14 16 23 35 9
19 21 35 27 35 6 0 7 5 4 10 -3 6 -1 10 4 10 6 0 11 5 11 11 0 6 8 21 18 34
19 26 29 40 74 110 18 28 37 53 43 57 5 4 6 8 2 8 -5 0 -2 6 5 14 18 19 53 67
54 75 3 19 17 40 25 35 5 -3 9 2 9 10 0 9 5 16 12 16 6 0 8 3 5 6 -4 4 7 24
24 45 17 22 28 39 24 39 -3 0 -1 6 5 13 46 55 60 74 60 85 0 6 4 12 8 12 5 0
17 18 28 39 10 22 21 38 24 36 3 -2 16 16 29 41 13 24 28 44 32 44 5 0 9 6 9
13 0 7 11 24 25 39 14 15 24 29 23 30 -1 2 12 24 30 50 18 26 32 51 32 56 0 6
7 12 15 16 8 3 15 12 15 21 0 8 4 15 8 15 5 0 15 12 23 28 8 15 19 32 24 39 6
7 16 19 23 27 6 8 12 20 12 26 0 5 5 10 10 10 6 0 10 7 10 15 0 9 7 18 15 21
8 4 12 10 9 15 -3 5 0 9 5 9 6 0 11 6 11 13 0 7 11 24 25 39 13 15 26 33 27
40 2 7 10 20 19 28 8 8 26 33 39 55 13 22 26 42 29 45 4 3 33 46 66 95 58 87
68 102 91 128 6 7 11 17 13 22 1 6 10 20 21 32 10 12 16 24 13 27 -3 3 2 8 11
12 9 3 16 12 16 20 0 8 5 14 12 14 6 0 9 3 5 6 -5 5 10 27 41 60 7 8 10 14 5
14 -4 0 -3 4 2 8 20 14 48 52 39 52 -5 0 -20 -14 -34 -32z"/>
<path d="M7157 14164 c3 -7 10 -14 16 -14 6 0 8 -3 4 -6 -3 -4 1 -13 9 -21 8
-9 18 -13 21 -10 3 3 -2 13 -11 22 -9 9 -16 20 -16 25 0 4 -7 10 -14 13 -10 4
-13 1 -9 -9z"/>
<path d="M7205 14100 c-3 -5 -2 -10 3 -10 5 0 15 -13 22 -30 7 -16 17 -30 22
-30 5 0 7 -4 4 -8 -3 -5 4 -15 15 -22 10 -8 19 -18 19 -23 0 -10 42 -71 53
-75 4 -2 7 -10 7 -18 0 -8 4 -14 9 -14 5 0 12 -8 16 -19 5 -16 16 -31 55 -78
5 -7 10 -15 10 -18 0 -4 11 -21 25 -39 14 -18 25 -38 25 -44 0 -7 4 -12 10
-12 5 0 17 -15 26 -32 9 -18 23 -37 30 -41 8 -4 14 -12 14 -16 0 -11 82 -135
92 -139 4 -2 8 -9 8 -16 0 -7 9 -21 20 -31 11 -10 20 -24 20 -31 0 -7 6 -17
13 -21 7 -4 25 -29 40 -55 15 -26 34 -54 43 -62 8 -9 12 -16 7 -16 -4 0 -3 -4
3 -8 13 -9 99 -136 95 -140 -1 -2 6 -10 16 -18 10 -7 14 -14 10 -14 -5 0 -2
-7 6 -14 15 -16 157 -223 193 -282 11 -19 30 -45 42 -59 12 -14 19 -25 17 -25
-3 0 -1 -6 5 -12 6 -7 25 -35 42 -63 18 -27 35 -52 38 -55 14 -13 50 -70 50
-80 0 -5 5 -10 10 -10 6 0 10 -7 10 -15 0 -8 5 -15 10 -15 6 0 10 -5 10 -10 0
-12 41 -73 53 -78 4 -2 7 -10 7 -18 0 -8 5 -14 10 -14 6 0 10 -9 10 -21 0 -11
5 -17 10 -14 6 3 10 1 10 -5 0 -12 39 -71 55 -82 7 -5 7 -8 0 -8 -6 0 -6 -3 0
-8 12 -8 43 -55 41 -62 -1 -3 10 -17 22 -30 13 -14 31 -38 39 -55 31 -59 29
-60 129 40 52 52 94 93 94 91 0 -3 28 22 63 55 34 32 68 59 75 59 6 0 12 7 12
16 0 8 4 13 9 9 6 -3 13 1 18 8 4 7 24 24 43 37 19 13 40 29 47 35 37 31 43
35 53 35 18 0 11 11 -26 43 -21 18 -54 49 -75 69 -22 21 -39 35 -39 32 0 -2
-28 23 -62 56 -35 33 -66 60 -71 60 -4 0 -5 5 -2 10 3 6 1 10 -6 10 -6 0 -21
9 -33 21 -89 88 -171 157 -180 152 -6 -3 -8 -3 -4 1 7 8 2 14 -102 106 -34 30
-79 71 -100 90 -43 40 -164 150 -197 178 -13 10 -19 23 -15 27 4 5 2 6 -3 2
-6 -3 -42 23 -80 59 -37 35 -72 64 -77 64 -4 0 -8 7 -8 17 0 9 -3 13 -6 10 -4
-4 -18 6 -30 21 -13 15 -24 24 -24 20 0 -4 -27 20 -60 52 -34 33 -63 60 -66
60 -3 0 -23 18 -44 40 -31 32 -38 36 -37 20 1 -11 5 -20 9 -20 4 0 14 -15 23
-34 9 -18 26 -44 38 -57 12 -13 21 -25 20 -26 -7 -7 -1 -20 20 -43 12 -14 23
-31 25 -39 1 -7 11 -22 22 -33 11 -12 17 -25 14 -30 -3 -4 -1 -8 4 -8 5 0 17
-16 26 -35 9 -19 21 -35 27 -35 6 0 8 -4 5 -9 -3 -5 1 -14 9 -21 8 -7 12 -16
9 -21 -3 -5 -1 -9 4 -9 5 0 15 -12 23 -27 8 -16 18 -32 22 -38 20 -25 124
-192 130 -207 3 -10 2 -18 -3 -18 -6 0 -10 3 -10 8 0 4 -23 33 -51 64 -27 31
-51 60 -52 64 -1 4 -18 23 -37 44 -42 45 -90 101 -90 106 0 2 -10 14 -22 27
-56 60 -76 86 -70 91 3 3 -2 6 -11 6 -10 0 -17 5 -17 10 0 9 -30 47 -67 85 -7
7 -9 15 -6 19 4 3 -1 6 -10 6 -9 0 -17 7 -17 15 0 9 -7 18 -15 21 -8 4 -12 10
-9 15 3 5 -3 9 -12 9 -10 0 -15 3 -12 6 3 3 -4 16 -16 28 -11 13 -32 38 -46
55 -14 17 -44 52 -67 77 -24 25 -43 48 -43 50 0 4 -21 30 -60 74 -14 16 -35
41 -47 57 -12 15 -34 42 -50 60 -15 17 -44 51 -63 75 -19 24 -45 53 -57 66
-13 13 -23 27 -23 32 0 6 -5 10 -10 10 -6 0 -16 11 -22 25 -12 26 -23 31 -33
15z"/>
<path d="M10768 12445 c-7 -8 -56 -14 -130 -17 -27 -1 -48 -5 -48 -9 0 -3 -12
-6 -27 -7 -29 -1 -79 -7 -123 -16 -14 -3 -38 -8 -55 -11 -16 -3 -39 -9 -50
-12 -11 -4 -24 -8 -30 -9 -5 -1 -23 -5 -40 -9 -16 -3 -37 -7 -45 -8 -8 -1 -17
-5 -20 -9 -3 -4 -21 -10 -39 -13 -19 -3 -42 -10 -53 -16 -11 -6 -29 -12 -41
-14 -12 -3 -31 -9 -42 -15 -31 -15 -134 -51 -141 -50 -4 1 -10 -3 -13 -8 -5
-9 -73 -41 -87 -41 -2 0 -12 -7 -20 -16 -9 -8 -19 -13 -23 -10 -5 2 -18 -5
-29 -16 -12 -10 -24 -19 -27 -19 -21 -1 -174 -92 -237 -142 -21 -16 -38 -27
-38 -24 0 6 -36 -23 -66 -52 -8 -7 -14 -11 -14 -7 0 4 -6 0 -14 -7 -52 -50
-121 -102 -130 -100 -6 2 -8 1 -4 -3 3 -4 -14 -26 -39 -48 -25 -23 -56 -52
-69 -64 -14 -13 -23 -23 -21 -23 2 0 -23 -28 -57 -63 -74 -77 -116 -126 -116
-137 0 -4 -7 -11 -16 -14 -8 -3 -12 -10 -9 -16 3 -5 -1 -10 -10 -10 -9 0 -13
-4 -10 -10 3 -5 2 -10 -2 -10 -5 0 -27 -27 -48 -60 -21 -33 -42 -60 -47 -60
-4 0 -8 -4 -8 -10 0 -5 -16 -34 -35 -65 -20 -30 -36 -58 -36 -62 0 -5 -6 -15
-13 -23 -7 -8 -21 -31 -31 -50 -63 -123 -86 -172 -110 -225 -14 -33 -26 -61
-25 -63 0 -1 -7 -19 -16 -40 -8 -20 -16 -45 -17 -54 -1 -10 -5 -18 -9 -18 -4
0 -8 -11 -8 -24 0 -14 -5 -28 -11 -31 -6 -4 -8 -13 -5 -20 2 -7 -2 -22 -10
-34 -8 -11 -13 -21 -11 -21 3 0 -5 -38 -18 -84 -13 -47 -21 -87 -17 -90 3 -3
1 -6 -5 -6 -6 0 -9 -10 -8 -23 2 -13 -2 -39 -9 -57 -6 -19 -11 -52 -11 -72 0
-21 -2 -38 -5 -38 -3 0 -6 -10 -7 -22 -1 -13 -4 -54 -8 -93 -8 -92 -13 -227
-8 -241 3 -7 76 -10 231 -9 125 1 230 3 234 4 3 0 7 31 8 69 4 154 5 172 10
172 3 0 6 12 6 28 2 28 10 89 19 132 2 14 7 36 9 50 10 51 15 70 22 82 4 7 9
21 10 32 4 41 15 81 27 95 7 8 11 16 10 18 -2 1 -3 4 -2 6 0 1 2 10 4 20 2 10
7 26 11 35 4 9 8 19 9 22 35 102 176 381 196 388 5 2 9 9 9 16 0 6 7 21 15 31
49 64 85 114 85 119 0 5 27 37 87 101 17 18 30 35 29 37 -2 2 37 42 86 89 48
48 88 85 88 83 0 -3 16 11 35 31 20 19 39 35 43 35 4 0 25 17 47 37 22 20 40
35 40 34 0 -1 8 1 17 4 10 4 16 11 13 15 -4 7 4 11 40 19 6 1 14 9 18 17 4 8
14 14 21 14 8 0 17 7 20 16 4 9 9 14 13 11 3 -4 18 2 32 12 22 16 173 98 186
102 2 0 14 3 25 6 11 3 20 10 20 16 0 6 3 7 6 4 4 -3 16 -1 28 5 11 7 26 13
31 15 12 3 149 52 153 54 1 1 7 3 12 4 6 1 11 3 13 4 1 2 13 5 27 8 39 7 55
11 55 13 0 2 31 9 60 14 11 2 31 6 45 10 55 13 89 19 190 30 19 2 36 5 38 6 7
6 49 3 61 -5 9 -5 12 -4 8 2 -4 6 12 9 41 8 26 0 57 2 70 7 12 4 22 4 22 0 0
-4 50 -7 110 -7 61 0 110 -2 110 -5 0 -4 18 -6 40 -5 22 1 40 -2 40 -6 0 -4
11 -6 25 -3 15 2 31 1 37 -2 6 -4 32 -9 57 -11 25 -2 48 -7 51 -11 3 -4 12 -8
20 -8 8 -1 31 -5 50 -9 19 -4 40 -8 45 -9 6 -1 16 -5 23 -9 6 -5 12 -5 12 -1
0 3 7 1 15 -6 8 -7 15 -10 15 -7 0 6 97 -27 107 -36 3 -4 12 -7 20 -7 24 0
263 -111 263 -123 0 -4 4 -6 9 -2 5 3 17 -2 25 -11 9 -8 16 -13 16 -9 0 3 20
-8 44 -25 25 -16 49 -30 55 -30 6 0 11 -4 11 -8 0 -5 12 -15 28 -23 15 -8 34
-22 43 -31 9 -10 21 -18 28 -18 6 0 24 -14 41 -31 16 -18 30 -28 30 -23 0 5
10 -1 23 -14 12 -12 34 -32 49 -45 15 -13 24 -27 20 -31 -4 -4 -2 -6 4 -4 13
4 105 -78 96 -86 -3 -3 3 -6 13 -6 10 0 16 -2 13 -5 -3 -3 13 -26 36 -50 84
-90 105 -115 99 -115 -3 0 4 -8 15 -19 12 -10 22 -23 22 -28 0 -5 8 -18 18
-29 20 -22 80 -113 108 -164 10 -19 24 -40 29 -46 6 -6 19 -32 30 -58 10 -25
23 -46 28 -46 4 0 5 -4 2 -10 -3 -5 -1 -10 4 -10 6 0 10 -3 9 -7 -1 -8 9 -34
36 -98 8 -16 18 -43 24 -60 6 -16 14 -39 18 -50 4 -11 8 -22 9 -25 0 -3 11
-35 23 -72 12 -37 22 -76 22 -86 0 -10 3 -22 7 -26 7 -7 11 -31 15 -83 1 -13
5 -23 9 -23 4 0 6 -11 4 -25 -1 -14 1 -25 4 -25 4 0 7 -15 8 -32 1 -18 5 -55
8 -83 3 -27 7 -80 8 -117 1 -37 5 -70 9 -74 4 -3 3 -15 -2 -24 -7 -13 -6 -19
3 -22 6 -3 113 -4 237 -4 l225 1 0 100 c-1 118 -13 271 -24 294 -4 9 -7 28 -6
44 0 15 -2 27 -6 27 -3 0 -4 11 -1 25 2 15 0 25 -7 25 -7 0 -10 4 -7 8 3 5 -4
46 -15 93 -12 46 -22 91 -24 99 -2 8 -9 29 -15 45 -6 17 -14 39 -16 50 -5 27
-38 119 -44 125 -3 3 -6 12 -8 20 -2 8 -9 29 -17 45 -20 46 -48 109 -50 115
-4 14 -70 142 -95 185 -16 28 -33 58 -36 68 -3 9 -10 17 -15 17 -5 0 -9 7 -9
15 0 8 -5 15 -11 15 -5 0 -7 5 -4 10 3 6 2 10 -4 10 -6 0 -17 16 -26 35 -9 19
-23 39 -31 46 -8 6 -14 18 -14 25 0 8 -4 14 -9 14 -4 0 -20 17 -34 39 -14 21
-36 50 -49 64 -13 14 -39 45 -58 69 -63 78 -331 335 -361 346 -5 2 -24 17 -43
34 -19 16 -36 28 -38 27 -2 -2 -17 8 -33 24 -17 15 -38 30 -47 33 -10 3 -18
10 -18 15 0 5 -7 9 -15 9 -8 0 -15 5 -15 10 0 6 -5 10 -10 10 -6 0 -34 16 -63
35 -28 19 -56 35 -60 35 -5 0 -20 9 -34 20 -14 11 -29 17 -34 14 -5 -3 -9 -1
-9 4 0 4 -16 14 -35 22 -19 8 -35 18 -35 24 0 5 -3 7 -6 3 -4 -3 -21 1 -38 10
-17 10 -33 18 -36 18 -3 0 -21 8 -40 17 -53 24 -134 53 -142 50 -5 -1 -8 3 -8
8 0 5 -3 9 -7 9 -19 -4 -73 15 -73 24 0 6 -3 8 -6 4 -3 -3 -29 1 -57 10 -28 8
-58 17 -66 19 -9 2 -34 8 -56 14 -22 6 -53 13 -70 15 -16 3 -41 8 -55 11 -49
11 -107 20 -200 30 -36 3 -73 10 -82 15 -10 5 -19 5 -23 0 -3 -6 -15 -8 -28
-5 -36 8 -259 11 -294 3 -18 -4 -33 -3 -35 3 -2 5 -6 6 -10 3z"/>
<path d="M6079 10499 c14 -5 32 -11 40 -13 9 -2 23 -6 31 -9 8 -4 24 -8 35
-10 11 -2 27 -6 35 -9 17 -7 165 -49 183 -52 7 -2 19 -5 27 -8 8 -3 42 -13 75
-23 33 -9 101 -27 150 -41 50 -14 95 -26 100 -28 6 -2 38 -11 72 -21 34 -10
60 -22 57 -27 -3 -4 -13 -4 -22 1 -9 4 -26 7 -36 5 -11 -1 -25 0 -30 4 -6 3
-22 5 -35 3 -17 -2 -21 1 -15 11 6 10 5 11 -8 1 -8 -7 -17 -10 -20 -7 -6 6
-31 10 -108 19 -88 10 -105 13 -105 15 0 1 -16 3 -35 5 -19 2 -35 4 -35 5 0 1
-16 3 -35 5 -19 1 -53 6 -75 10 -22 4 -58 8 -80 10 -22 2 -51 7 -65 10 -14 3
-52 8 -85 11 -33 3 -62 7 -65 9 -7 4 -116 18 -152 19 -16 1 -28 4 -28 7 0 3
-15 6 -32 7 -18 0 -53 4 -78 8 -25 4 -57 8 -72 8 -16 1 -28 3 -28 7 0 3 -18 5
-40 4 -22 -1 -40 2 -40 5 0 3 -19 7 -42 9 -54 4 -93 8 -93 11 0 1 -21 3 -48 5
-26 2 -52 7 -58 11 -11 7 -144 16 -137 9 2 -2 15 -6 28 -9 14 -2 54 -11 89
-20 36 -8 68 -13 73 -10 4 3 8 1 8 -4 0 -4 30 -14 68 -21 37 -7 81 -17 97 -21
17 -5 50 -14 75 -21 25 -6 52 -14 60 -17 8 -3 18 -5 22 -4 3 1 28 -5 54 -13
26 -8 50 -14 53 -13 3 0 9 -1 14 -2 4 -1 10 -3 15 -4 11 -3 166 -40 175 -42 4
-1 9 -3 12 -4 3 -1 8 -3 13 -4 62 -14 89 -19 100 -17 6 1 12 -3 12 -9 0 -6 4
-8 10 -5 5 3 18 1 28 -4 11 -6 34 -12 53 -14 19 -2 41 -7 49 -10 8 -4 26 -9
40 -11 30 -6 48 -10 118 -30 29 -8 55 -15 57 -15 3 -1 6 -1 8 -2 2 -1 18 -4
57 -12 14 -3 40 -10 58 -16 18 -5 35 -10 37 -10 3 -1 6 -1 8 -2 7 -2 35 -8 54
-11 12 -2 25 -7 29 -10 3 -4 12 -4 19 -2 7 3 16 1 19 -5 4 -6 13 -8 21 -4 8 3
15 0 15 -6 0 -6 7 -8 15 -5 9 4 15 0 15 -7 0 -11 3 -11 10 1 5 8 10 10 10 4 0
-6 6 -11 13 -11 21 -1 80 -14 89 -19 5 -3 18 -7 31 -10 29 -5 53 -11 102 -24
22 -6 59 -15 83 -20 23 -5 51 -14 62 -20 11 -6 20 -9 20 -6 0 3 22 -2 49 -10
28 -8 53 -13 58 -12 4 1 18 -3 29 -10 12 -6 24 -9 27 -5 4 3 13 0 22 -7 8 -7
15 -10 15 -6 0 3 16 0 35 -9 20 -8 33 -10 29 -4 -3 6 8 3 25 -6 17 -9 36 -13
41 -10 5 3 12 0 15 -6 4 -5 13 -8 21 -5 7 3 16 1 19 -5 4 -5 11 -7 16 -4 5 4
9 2 9 -4 0 -5 8 -8 18 -6 9 1 24 -1 33 -6 31 -16 79 -20 80 -7 0 7 2 54 4 103
2 50 4 90 5 90 1 0 3 20 5 45 5 64 15 151 21 180 2 14 7 41 10 60 6 40 11 64
18 100 3 14 9 40 12 58 l6 32 -923 -1 c-595 0 -915 -4 -900 -10z"/>
<path d="M13991 10478 c2 -18 6 -37 10 -43 3 -5 7 -17 7 -25 1 -22 11 -84 20
-127 5 -21 8 -53 7 -70 0 -18 3 -33 7 -33 4 0 8 -10 7 -22 0 -13 3 -61 6 -108
3 -47 7 -116 8 -153 1 -76 -7 -71 77 -51 14 3 32 7 40 9 8 2 15 4 15 5 0 2 34
10 60 14 11 2 37 11 58 19 23 10 37 12 37 5 0 -7 5 -7 14 1 13 11 54 23 84 24
6 0 12 4 12 9 0 4 3 7 8 6 4 -1 27 2 52 7 25 5 50 10 55 11 6 0 17 4 25 7 8 3
35 11 60 18 25 7 50 14 55 15 6 2 20 5 33 8 13 3 32 8 42 11 10 3 27 8 37 10
10 2 38 8 63 15 25 6 50 12 55 13 6 1 15 5 20 8 6 4 20 5 33 4 12 -1 22 3 22
8 0 6 3 8 6 4 3 -3 17 -2 30 3 14 6 35 12 47 14 21 4 93 21 130 31 9 3 25 7
36 9 10 2 35 9 55 14 20 6 36 8 36 5 0 -3 6 -1 13 4 6 6 30 14 52 18 22 5 46
9 53 11 8 1 21 6 30 9 9 4 35 9 57 11 21 3 41 8 45 13 3 4 13 7 22 5 10 -1 20
2 24 7 3 5 10 7 15 4 5 -4 9 -3 9 2 0 4 10 8 23 9 19 1 41 5 97 19 8 2 15 4
15 5 0 1 10 4 23 6 12 2 32 6 45 8 12 2 22 5 22 6 0 3 82 21 108 23 9 1 17 5
17 9 0 4 3 7 8 6 14 -4 287 64 301 76 12 9 13 8 6 -3 -6 -11 -5 -12 6 -5 15 9
32 14 64 17 11 2 26 6 33 10 6 5 12 5 12 1 0 -3 6 -2 13 3 6 6 22 9 35 8 12
-1 22 2 22 7 0 5 4 7 9 3 5 -3 12 -1 15 4 4 5 14 8 24 6 9 -1 22 1 28 6 6 5
27 10 47 11 20 2 37 6 37 10 0 4 9 5 20 3 11 -2 18 0 15 5 -3 5 -15 7 -28 4
-12 -3 -35 -6 -52 -9 -16 -2 -50 -7 -75 -10 -25 -4 -55 -8 -67 -8 -13 -1 -23
-6 -23 -11 0 -6 -5 -4 -10 4 -5 8 -10 10 -10 5 0 -6 -15 -11 -32 -12 -38 -2
-113 -11 -113 -13 0 -1 -13 -4 -30 -5 -29 -3 -68 -9 -145 -20 -19 -3 -55 -8
-80 -10 -25 -2 -58 -7 -75 -10 -16 -4 -46 -8 -65 -10 -19 -2 -35 -4 -35 -5 0
-1 -11 -3 -25 -5 -65 -8 -118 -15 -145 -20 -16 -3 -48 -7 -70 -10 -62 -7 -118
-15 -145 -21 -14 -3 -41 -6 -60 -7 -19 -2 -39 -5 -45 -8 -5 -3 -33 -5 -62 -4
-28 0 -49 -4 -45 -9 3 -5 -2 -7 -11 -3 -9 3 -19 1 -23 -5 -4 -7 -9 -6 -15 3
-5 8 -9 9 -9 4 0 -11 -28 -16 -97 -18 -24 -1 -43 -6 -43 -11 0 -4 -11 -6 -25
-4 -14 3 -25 2 -25 -2 0 -5 -10 -6 -22 -2 -19 5 -17 7 18 19 21 8 48 16 59 18
11 2 21 4 23 6 1 1 5 2 10 3 4 1 12 4 17 7 6 4 20 5 33 4 12 -1 22 3 22 8 0 5
7 7 15 3 8 -3 15 -2 15 3 0 7 66 27 110 35 9 1 20 5 26 9 6 3 27 8 46 11 20 2
44 9 54 14 26 14 116 37 132 34 6 -2 12 2 12 9 0 6 7 9 15 5 8 -3 15 -1 15 5
0 6 5 7 10 4 6 -3 10 0 10 7 0 9 3 9 10 -2 8 -12 10 -12 10 -1 0 8 3 12 6 8 3
-3 23 1 44 8 21 7 41 11 44 8 3 -4 6 -1 6 6 0 7 3 10 8 8 4 -3 16 -1 27 3 11
5 -395 9 -903 9 l-924 1 3 -32z"/>
<path d="M16325 9800 c-21 -8 -21 -10 -19 -1236 1 -1051 4 -1269 14 -1269 1 0
4 -11 6 -25 3 -14 14 -44 25 -67 11 -23 20 -45 20 -48 -1 -3 7 -13 17 -23 10
-10 25 -27 33 -38 19 -27 109 -99 109 -88 0 5 4 4 8 -2 11 -15 111 -52 162
-60 63 -9 250 -12 254 -5 3 4 25 6 50 5 25 -1 46 2 46 7 0 4 9 6 20 4 11 -2
20 -1 20 3 0 4 10 7 23 8 35 1 115 21 167 41 8 4 17 7 20 8 43 15 61 27 57 39
-3 8 -1 17 6 20 9 3 8 5 -1 5 -7 1 -10 6 -7 11 3 6 2 10 -3 10 -4 0 -8 16 -7
35 1 19 -1 35 -4 35 -4 0 -7 10 -7 23 -1 12 -4 36 -7 52 -16 83 -37 201 -37
209 0 5 -6 4 -12 -1 -7 -6 -26 -14 -43 -18 -37 -10 -36 -10 -60 -21 -23 -10
-159 -11 -192 -2 -55 16 -130 109 -120 148 3 11 1 18 -3 15 -5 -3 -9 495 -8
1106 0 923 -2 1113 -13 1120 -8 5 -15 4 -17 0 -2 -5 -16 -6 -32 -1 -17 5 -32
5 -35 1 -2 -5 -17 -6 -32 -4 -48 7 -125 8 -129 2 -3 -6 -23 -5 -69 4 -11 2
-30 0 -42 -4 -13 -5 -23 -5 -23 0 0 5 -16 5 -34 1 -19 -4 -37 -6 -39 -4 -9 9
-43 11 -62 4z"/>
<path d="M1160 9083 c0 -4 -28 -9 -63 -10 -34 -1 -98 -10 -142 -18 -44 -9 -84
-17 -90 -18 -5 -1 -12 -4 -15 -7 -6 -7 -93 -33 -99 -30 -2 1 -7 -2 -10 -7 -5
-7 -52 -32 -71 -38 -67 -21 -220 -135 -304 -227 -27 -29 -48 -54 -47 -55 0 -2
-9 -14 -20 -27 -12 -13 -19 -26 -18 -28 2 -2 -5 -13 -16 -25 -29 -31 -133
-243 -119 -243 3 0 0 -9 -6 -20 -6 -11 -13 -33 -15 -48 -5 -31 -13 -71 -24
-124 -10 -41 -6 -320 4 -358 4 -14 8 -34 9 -45 1 -11 8 -36 14 -56 7 -20 15
-45 17 -55 11 -44 30 -94 37 -94 5 0 8 -7 8 -14 0 -17 68 -138 84 -148 6 -4 7
-8 3 -8 -4 0 6 -15 22 -32 17 -18 31 -39 31 -46 0 -7 4 -11 9 -8 5 3 11 -4 14
-15 3 -12 10 -18 16 -14 6 3 11 1 11 -6 0 -6 18 -29 40 -50 22 -22 40 -36 40
-32 0 3 8 -3 17 -14 10 -11 26 -22 35 -26 10 -3 18 -11 18 -17 0 -5 6 -10 13
-10 7 0 23 -9 35 -20 12 -12 22 -18 22 -15 0 3 18 -6 39 -19 22 -14 51 -28 65
-32 14 -3 26 -10 26 -15 0 -5 3 -8 8 -7 4 1 19 -4 35 -10 15 -7 38 -14 51 -16
14 -2 34 -10 46 -16 12 -6 27 -9 35 -7 7 3 18 0 24 -6 6 -6 30 -12 53 -13 24
-1 43 -3 43 -4 0 -8 266 -19 279 -12 8 5 45 8 154 15 12 0 22 4 22 7 0 3 10 7
23 8 25 2 61 9 65 12 1 2 7 4 12 5 6 1 11 3 13 5 1 1 10 3 21 5 60 11 269 117
296 150 7 8 17 15 23 15 5 0 18 10 28 22 11 11 19 18 19 15 0 -3 23 18 51 46
60 60 129 149 129 165 0 7 4 12 8 12 5 0 16 16 25 35 l17 35 -28 0 c-15 0 -32
4 -37 9 -6 5 -23 11 -40 14 -16 2 -37 6 -45 9 -47 16 -89 28 -120 33 -19 3
-36 10 -38 15 -2 5 -10 6 -18 3 -8 -3 -21 0 -29 7 -8 7 -15 10 -15 7 0 -3 -21
1 -46 9 -53 16 -58 14 -80 -28 -9 -17 -25 -40 -35 -51 -10 -12 -19 -25 -19
-29 0 -5 -4 -6 -10 -3 -5 3 -10 -2 -10 -11 0 -10 -3 -15 -6 -11 -4 3 -12 1
-20 -6 -31 -28 -43 -36 -85 -58 -24 -13 -46 -23 -49 -24 -3 0 -21 -6 -40 -13
-116 -38 -271 -44 -355 -12 -14 5 -25 7 -25 4 0 -2 -13 2 -30 11 -16 9 -30 12
-30 9 0 -4 -8 0 -18 9 -10 10 -22 14 -25 10 -4 -3 -7 -1 -7 5 0 7 -6 12 -12
12 -32 0 -188 157 -188 189 0 6 -4 11 -10 11 -5 0 -10 6 -10 13 0 8 -7 28 -16
46 -36 72 -52 204 -23 186 8 -5 410 -9 434 -5 6 2 15 2 20 1 32 -5 1169 0
1174 5 8 8 9 314 1 314 -3 0 -6 15 -5 33 1 17 -1 37 -4 42 -6 11 -7 16 -16 60
-3 17 -8 37 -12 45 -3 8 -7 18 -8 23 -2 4 -3 8 -5 10 -1 1 -3 9 -5 17 -1 9
-13 38 -26 65 -12 28 -24 56 -25 63 -1 8 -10 22 -20 33 -9 10 -14 19 -10 19 4
0 -2 10 -14 22 -11 12 -20 26 -20 31 0 5 -10 18 -22 28 -11 11 -18 19 -14 19
9 0 -6 17 -84 97 -67 68 -161 143 -180 143 -6 0 -13 7 -16 15 -4 8 -10 12 -15
9 -5 -3 -9 0 -9 7 0 7 -3 9 -6 6 -4 -4 -19 2 -34 13 -16 11 -35 20 -44 20 -9
0 -16 5 -16 11 0 5 -4 7 -10 4 -5 -3 -10 -1 -10 5 0 6 -6 10 -12 9 -7 -1 -26
4 -43 11 -16 7 -34 14 -40 16 -19 6 -60 15 -85 20 -14 2 -32 7 -40 10 -8 4
-31 8 -50 10 -19 2 -57 6 -85 9 -49 6 -64 6 -115 2 -14 -2 -33 1 -42 6 -10 4
-18 4 -18 0z m193 -407 c31 -7 57 -11 57 -7 0 3 4 2 8 -4 4 -5 33 -23 65 -40
133 -69 248 -223 272 -365 12 -72 12 -80 1 -81 -41 -6 -73 -3 -85 6 -9 6 -13
6 -9 0 4 -7 -164 -10 -497 -10 l-504 0 6 40 c3 22 6 52 6 68 1 15 5 27 9 27 5
0 8 4 8 9 0 5 5 22 12 38 13 31 15 38 17 53 0 6 9 10 19 11 9 0 12 3 5 5 -15
6 9 36 95 122 35 34 67 60 72 57 4 -3 11 2 14 11 3 8 10 12 16 9 5 -3 10 -2
10 4 0 5 17 15 38 21 20 6 44 14 52 17 8 3 24 8 34 10 11 2 21 5 23 7 10 10
206 4 256 -8z"/>
<path d="M3717 9084 c-3 -4 -30 -8 -59 -10 -60 -4 -244 -39 -283 -54 -14 -5
-25 -7 -25 -4 0 2 -10 -1 -22 -8 -13 -6 -29 -13 -36 -14 -8 -1 -21 -6 -30 -10
-9 -4 -19 -8 -22 -8 -3 -1 -15 -7 -27 -14 -13 -7 -23 -10 -23 -6 0 3 -6 1 -13
-5 -8 -6 -17 -8 -20 -4 -4 3 -7 2 -7 -4 0 -5 -18 -16 -40 -23 -22 -7 -40 -17
-40 -21 0 -4 -10 -11 -22 -15 -47 -15 -118 -65 -115 -82 4 -21 39 -95 49 -102
3 -3 8 -14 10 -25 1 -11 10 -28 18 -38 8 -10 15 -21 16 -25 3 -23 55 -120 67
-125 8 -3 33 8 56 25 23 16 41 26 41 21 0 -4 4 -3 8 2 4 6 30 22 57 35 28 14
52 28 53 33 2 4 7 7 12 7 5 0 21 5 37 11 15 6 29 10 31 10 1 -1 16 6 33 15 17
8 40 17 50 20 10 2 28 6 39 9 52 13 69 17 120 25 57 10 222 7 275 -4 17 -4 42
-9 58 -12 15 -3 27 -10 27 -16 0 -6 3 -8 7 -5 19 19 191 -122 177 -145 -3 -4
-2 -8 3 -8 14 0 32 -51 50 -140 3 -17 5 -106 4 -167 l-1 -42 -60 24 c-33 13
-60 22 -60 20 0 -2 -23 3 -52 10 -28 8 -55 12 -60 9 -4 -3 -8 -1 -8 4 0 5 -10
8 -22 7 -13 -1 -27 0 -33 3 -5 3 -23 7 -40 8 -39 3 -259 6 -265 4 -3 -1 -30
-3 -60 -5 -58 -4 -84 -8 -165 -27 -27 -7 -52 -12 -55 -13 -3 0 -10 -3 -16 -7
-6 -4 -22 -9 -36 -12 -31 -5 -186 -82 -210 -103 -10 -9 -18 -13 -18 -9 0 4
-11 -5 -25 -20 -14 -15 -25 -24 -25 -21 0 3 -15 -9 -33 -26 -18 -18 -32 -33
-31 -35 2 -2 -5 -12 -14 -21 -45 -47 -92 -132 -114 -206 -35 -118 -23 -322 25
-410 6 -11 12 -25 13 -32 8 -50 188 -253 224 -253 6 0 10 -4 10 -10 0 -5 7
-10 15 -10 8 0 15 -5 15 -11 0 -5 4 -8 9 -5 4 3 23 -6 41 -19 18 -13 37 -22
42 -19 5 3 19 -1 31 -9 29 -18 112 -36 190 -40 9 -1 17 -4 17 -7 0 -8 145 -4
159 4 6 4 11 1 11 -6 0 -8 3 -9 8 -3 4 6 27 12 52 14 25 2 50 6 55 11 6 4 17
7 25 7 41 1 130 32 212 73 70 36 101 53 108 60 3 3 21 17 40 30 19 13 45 34
57 47 12 13 27 23 33 23 5 0 10 4 10 8 0 8 78 92 85 92 2 0 4 -8 4 -17 2 -98
34 -187 86 -238 40 -41 101 -76 136 -78 16 -1 29 -5 29 -9 0 -8 210 -8 224 0
8 4 64 12 104 15 6 0 12 5 12 11 1 19 2 420 1 439 -1 9 -4 16 -8 16 -40 -6
-108 32 -111 63 -4 35 -12 80 -17 88 -3 5 -1 11 4 14 5 3 5 21 1 41 -5 21 -4
35 1 35 6 0 5 8 -1 19 -6 12 -6 22 -1 25 5 3 5 21 1 41 -5 21 -4 35 1 35 6 0
5 8 -1 19 -6 12 -6 22 -1 25 5 3 5 21 1 41 -5 21 -4 35 1 35 6 0 6 8 0 19 -6
10 -8 21 -5 24 7 7 7 315 -1 326 -3 5 -1 12 5 16 6 4 7 12 3 18 -8 12 -9 20
-15 99 -1 27 -6 48 -9 48 -3 0 -6 6 -7 13 -4 65 -62 203 -110 262 -4 6 -11 18
-15 28 -3 9 -11 17 -17 17 -6 0 -9 3 -7 8 5 9 -60 71 -68 64 -3 -3 -5 2 -5 12
0 9 -4 15 -9 12 -5 -3 -11 1 -15 9 -3 8 -13 15 -22 15 -10 0 -14 3 -11 6 6 7
-43 39 -75 50 -10 4 -18 11 -18 17 0 6 -3 7 -7 4 -3 -4 -11 -2 -18 3 -26 22
-189 75 -260 85 -11 2 -20 4 -20 5 0 2 -44 7 -140 15 -119 11 -148 11 -171 3
-12 -3 -26 -2 -31 3 -5 5 -12 6 -16 3z m183 -1138 c101 -8 160 -18 160 -28 0
-5 4 -7 10 -3 12 7 140 -27 140 -38 0 -4 5 -5 10 -2 12 8 12 10 12 -153 -1
-104 -4 -139 -17 -158 -8 -13 -15 -26 -15 -29 0 -3 -14 -18 -32 -33 -17 -15
-46 -41 -64 -57 -34 -32 -150 -95 -175 -95 -8 0 -20 -5 -27 -12 -7 -7 -12 -9
-12 -5 0 3 -19 0 -43 -7 -49 -15 -246 -19 -262 -6 -6 5 -23 11 -38 14 -50 9
-184 107 -172 126 3 4 -2 10 -10 14 -8 3 -15 14 -15 25 0 11 -5 23 -11 27 -6
3 -9 15 -6 25 3 11 2 19 -2 19 -13 0 -2 133 11 142 7 4 9 8 4 8 -4 0 -1 11 8
25 9 14 14 25 11 25 -2 0 14 20 38 44 23 24 45 41 50 39 4 -2 7 1 7 7 0 6 4 9
9 6 5 -3 12 1 15 10 3 8 10 13 15 10 5 -4 11 -3 13 1 1 5 20 16 41 26 21 9 36
13 33 8 -4 -5 6 -3 22 4 15 8 59 17 97 21 39 4 71 8 73 9 2 2 15 1 30 -1 15
-2 56 -5 92 -8z"/>
<path d="M6245 9082 c-1 -2 -27 -5 -56 -7 -75 -5 -174 -24 -219 -42 -8 -3 -21
-7 -28 -9 -8 -1 -21 -6 -30 -10 -9 -4 -19 -8 -22 -8 -3 -1 -15 -7 -27 -14 -13
-7 -23 -10 -23 -7 0 4 -7 -1 -16 -9 -8 -9 -22 -16 -30 -16 -8 0 -14 -4 -14
-10 0 -5 -7 -10 -15 -10 -8 0 -15 -4 -15 -10 0 -5 -4 -10 -10 -10 -20 0 -140
-113 -140 -131 0 -6 -4 -8 -9 -4 -5 3 -13 -4 -16 -16 -4 -12 -14 -30 -24 -40
-9 -11 -16 -23 -16 -27 -1 -4 -9 -21 -18 -39 -9 -18 -17 -39 -17 -48 0 -8 -4
-15 -8 -15 -4 0 -8 -8 -9 -17 -1 -10 -5 -34 -9 -53 -19 -94 0 -340 27 -340 4
0 10 -11 13 -25 4 -14 11 -25 16 -25 6 0 10 -5 10 -11 0 -17 105 -111 131
-117 7 -2 16 -7 19 -11 5 -8 101 -56 112 -56 3 0 10 -3 14 -7 4 -5 16 -8 26
-8 10 0 18 -4 18 -10 0 -5 3 -9 8 -8 9 3 90 -20 114 -33 10 -5 29 -9 43 -9 14
0 25 -4 25 -8 0 -4 12 -9 26 -10 14 -1 31 -5 37 -9 7 -4 17 -8 22 -9 28 -5
149 -39 218 -61 43 -14 84 -26 90 -27 7 -2 26 -8 42 -15 82 -32 111 -46 123
-60 6 -8 12 -11 12 -6 0 14 44 -36 56 -65 17 -38 12 -135 -9 -158 -9 -10 -17
-23 -17 -28 0 -15 -60 -64 -86 -70 -13 -3 -24 -10 -24 -15 0 -4 -9 -6 -20 -4
-11 2 -20 0 -20 -4 0 -4 -6 -8 -12 -9 -7 0 -44 -3 -83 -7 -38 -3 -74 -6 -80
-6 -26 0 -129 11 -145 16 -10 3 -33 8 -52 10 -54 7 -194 57 -293 106 -49 24
-92 46 -95 49 -3 3 -27 19 -55 35 -27 16 -56 35 -63 42 -18 18 -42 17 -42 -2
0 -8 -5 -15 -11 -15 -5 0 -7 -4 -4 -10 3 -5 1 -10 -5 -10 -6 0 -8 -4 -5 -10 3
-5 1 -10 -5 -10 -6 0 -13 -8 -17 -17 -4 -10 -19 -37 -35 -60 -15 -23 -28 -45
-28 -49 0 -3 -15 -27 -33 -53 -44 -61 -50 -79 -33 -97 8 -8 17 -14 20 -14 6 0
36 -24 61 -47 7 -7 15 -9 19 -6 3 4 6 2 6 -3 0 -6 18 -18 40 -28 22 -10 40
-22 40 -27 0 -5 6 -9 13 -9 8 0 41 -13 75 -30 76 -37 235 -89 280 -92 6 -1 12
-4 12 -7 0 -3 16 -7 36 -8 20 -1 42 -7 49 -13 10 -8 14 -7 18 2 4 10 7 10 14
1 5 -7 17 -12 28 -12 73 -2 135 -6 135 -11 0 -8 95 -4 108 4 7 4 12 3 12 -2 0
-5 12 -8 28 -6 15 1 27 3 27 4 0 1 32 3 70 6 81 5 96 7 112 17 6 4 18 4 26 1
8 -3 18 0 22 5 3 6 10 9 15 6 4 -2 34 5 66 16 33 12 65 21 72 22 6 0 12 5 12
10 0 6 3 7 7 4 3 -4 15 0 25 10 10 9 18 13 18 10 0 -10 112 63 131 85 9 10 19
18 23 18 3 0 15 9 26 20 11 11 18 20 16 20 -2 0 9 14 25 31 16 17 37 48 46 68
9 20 20 38 24 41 6 4 18 36 25 65 2 6 6 21 9 35 4 14 8 37 9 53 0 15 4 27 7
27 7 0 3 173 -5 205 -2 11 -5 20 -6 20 -1 0 -3 11 -6 24 -2 14 -9 30 -14 36
-5 7 -7 15 -3 18 3 4 -3 15 -15 25 -12 11 -19 22 -15 26 3 3 1 6 -5 6 -7 0
-12 6 -12 13 0 7 -23 33 -51 57 -28 25 -57 50 -64 57 -7 7 -15 10 -17 7 -3 -2
-11 2 -18 11 -7 8 -19 15 -26 15 -8 0 -14 5 -14 10 0 6 -9 10 -20 10 -11 0
-20 4 -20 10 0 5 -3 9 -7 8 -5 -1 -30 8 -58 20 -27 13 -56 24 -65 26 -15 3
-36 10 -75 26 -31 12 -197 60 -229 66 -16 3 -34 8 -40 12 -6 3 -15 7 -21 7
-13 0 -116 25 -135 32 -15 6 -42 12 -67 15 -7 1 -13 5 -13 10 0 4 -7 8 -15 8
-54 0 -206 105 -190 131 4 5 2 9 -3 9 -7 0 -9 73 -4 130 4 35 86 120 116 120
8 0 17 4 20 9 6 9 47 19 106 26 19 2 36 4 38 5 10 7 137 -3 204 -15 41 -8 145
-40 167 -51 14 -7 28 -11 33 -8 4 3 8 1 8 -4 0 -4 16 -14 35 -22 19 -8 35 -18
35 -23 0 -5 6 -7 14 -4 8 3 17 -1 20 -9 3 -8 12 -14 21 -14 8 0 15 -4 15 -10
0 -5 5 -10 11 -10 6 0 29 -13 52 -29 l42 -29 35 52 c19 28 39 54 45 58 5 4 6
8 2 8 -5 0 -2 6 6 14 7 8 29 38 48 68 18 29 38 58 44 65 5 7 16 19 23 27 16
20 15 34 -3 52 -8 9 -15 13 -15 9 0 -4 -19 10 -42 30 -23 19 -53 38 -65 41
-13 4 -23 10 -23 14 0 7 -72 44 -140 72 -14 6 -33 14 -42 19 -10 5 -27 9 -38
9 -11 0 -20 4 -20 8 0 5 -6 9 -12 9 -7 0 -26 4 -43 8 -16 3 -40 8 -52 10 -12
2 -25 5 -30 8 -9 6 -106 18 -173 22 -25 2 -45 4 -45 5 0 3 -127 5 -130 2z"/>
<path d="M7697 9075 c-2 -5 9 -35 25 -67 15 -32 28 -67 28 -78 0 -11 5 -20 10
-20 6 0 10 -9 10 -20 0 -11 4 -20 8 -20 5 0 9 -6 9 -12 1 -11 43 -116 93 -235
6 -13 15 -35 21 -50 6 -16 18 -40 25 -54 7 -14 11 -29 7 -33 -3 -3 -1 -6 6 -6
8 0 11 -7 7 -15 -3 -8 -1 -15 4 -15 6 0 9 -3 8 -7 -1 -5 7 -28 18 -53 10 -25
18 -48 16 -52 -1 -5 2 -8 8 -8 6 0 10 -8 10 -18 0 -10 7 -28 16 -40 8 -12 13
-22 10 -22 -3 0 1 -12 9 -27 8 -15 12 -30 9 -35 -3 -4 -1 -8 3 -8 9 0 39 -69
35 -82 -1 -5 3 -8 10 -8 6 0 9 -3 6 -6 -4 -3 5 -31 18 -62 36 -84 39 -90 75
-177 19 -44 34 -82 34 -85 1 -3 8 -21 17 -40 23 -50 31 -74 30 -82 -1 -5 3 -8
9 -8 6 0 9 -7 5 -15 -3 -8 -1 -15 4 -15 6 0 10 -9 10 -19 0 -11 5 -23 10 -26
6 -3 10 -15 10 -26 0 -10 5 -19 12 -19 6 0 9 -3 6 -6 -3 -3 11 -45 32 -94 21
-49 35 -91 32 -94 -3 -3 0 -6 6 -6 7 0 12 -9 12 -19 0 -11 5 -23 10 -26 6 -3
10 -15 10 -26 0 -10 4 -19 10 -19 5 0 7 -7 4 -15 -4 -8 -1 -15 6 -15 6 0 8 -4
5 -10 -3 -5 -1 -10 4 -10 6 0 11 -6 11 -14 0 -8 5 -27 12 -43 6 -15 11 -31 10
-35 -1 -5 2 -8 6 -8 14 0 12 -48 -3 -84 -9 -20 -13 -36 -11 -36 3 0 -1 -12 -9
-27 -8 -15 -12 -30 -9 -35 3 -4 0 -8 -6 -8 -6 0 -8 -4 -5 -10 3 -5 1 -10 -6
-10 -7 0 -10 -3 -7 -6 15 -15 -95 -204 -119 -204 -6 0 -13 -5 -15 -12 -7 -21
-86 -36 -170 -32 -45 3 -85 8 -88 12 -3 4 -16 7 -30 8 -14 0 -36 3 -50 5 l-25
4 -2 -205 c-2 -113 -1 -215 2 -226 4 -18 18 -25 76 -38 39 -9 75 -13 80 -10 5
3 9 1 9 -3 0 -5 55 -7 123 -5 160 5 167 5 167 16 0 5 3 7 6 3 4 -3 21 0 38 7
17 7 37 11 44 9 6 -3 12 0 12 7 0 6 4 9 8 6 5 -3 20 1 35 9 15 8 27 11 27 7 0
-4 7 2 16 13 8 11 16 18 17 17 4 -7 57 21 57 30 0 4 5 8 11 8 10 0 34 20 93
75 11 11 25 19 29 17 5 -1 6 2 2 8 -3 5 1 13 9 16 9 3 16 12 16 19 0 7 7 16
16 19 9 4 14 9 11 12 -2 3 6 17 19 31 13 14 21 29 18 34 -3 5 -1 9 4 9 5 0 12
8 15 18 3 9 19 50 37 91 17 41 32 82 33 90 1 9 7 23 12 31 9 15 15 34 17 58 1
6 5 12 10 12 4 0 7 3 6 8 0 4 2 14 5 22 10 26 59 163 79 220 10 30 25 70 34
88 8 18 17 41 19 50 2 10 10 34 18 54 9 20 13 39 9 42 -3 3 0 6 6 6 7 0 11 3
10 8 -1 4 4 23 11 42 8 19 15 40 16 45 13 45 61 171 68 176 5 3 8 8 6 10 -1 2
6 29 16 59 11 30 20 57 20 60 1 3 7 19 14 35 7 17 14 37 16 45 2 8 4 16 5 18
2 1 3 5 5 10 1 4 7 20 13 35 7 16 12 31 12 34 0 3 6 19 14 36 8 18 29 75 47
127 17 52 45 127 60 165 16 39 29 78 29 88 0 9 5 17 11 17 5 0 8 4 5 8 -3 5 1
20 9 35 8 15 11 27 8 27 -3 0 -1 6 5 13 6 6 11 17 12 22 4 16 11 36 30 90 46
127 52 145 50 151 -1 4 2 10 7 13 4 3 19 40 33 81 14 41 29 78 33 81 4 3 7 10
6 15 -1 5 3 23 10 39 7 17 15 39 17 50 2 11 8 21 14 23 6 2 8 7 5 12 -3 4 2
24 10 44 15 36 16 53 3 48 -5 -1 -8 1 -8 5 0 6 -420 10 -477 4 -11 -1 -17 -15
-28 -61 -1 -3 -5 -14 -9 -25 -16 -41 -19 -50 -22 -62 -6 -29 -27 -89 -35 -99
-5 -6 -7 -13 -4 -16 3 -3 -1 -21 -9 -40 -9 -20 -12 -38 -9 -42 4 -3 1 -6 -6
-6 -7 0 -11 -8 -10 -17 1 -10 -3 -31 -10 -48 -7 -16 -13 -38 -14 -47 -1 -10
-5 -18 -9 -18 -4 0 -8 -11 -8 -25 0 -14 -5 -25 -11 -25 -5 0 -8 -3 -6 -8 3 -4
-6 -39 -20 -77 -13 -39 -26 -79 -28 -90 -2 -11 -4 -21 -5 -22 -2 -2 -3 -6 -5
-10 -1 -5 -5 -15 -8 -23 -4 -8 -8 -24 -10 -35 -2 -11 -9 -33 -16 -50 -7 -16
-13 -38 -14 -47 -1 -10 -5 -18 -10 -18 -5 0 -7 -7 -4 -15 4 -8 2 -17 -4 -20
-5 -4 -7 -11 -4 -16 4 -5 2 -9 -3 -9 -5 0 -9 -7 -10 -15 -1 -8 -3 -22 -4 -30
-1 -8 -6 -15 -11 -15 -6 0 -8 -3 -5 -6 4 -3 -5 -38 -19 -77 -13 -40 -26 -76
-27 -82 -6 -26 -68 -222 -76 -240 -13 -30 -24 -69 -22 -77 1 -5 -3 -8 -9 -8
-5 0 -8 -4 -5 -9 4 -5 2 -19 -2 -31 l-8 -21 -11 23 c-21 47 -36 83 -39 98 -3
16 -54 156 -74 205 -7 17 -12 34 -12 38 1 4 -6 24 -16 45 -9 20 -26 65 -37
100 -11 34 -23 62 -27 62 -5 0 -8 14 -8 30 0 17 -5 30 -12 30 -6 0 -9 3 -5 6
3 4 0 19 -9 35 -8 16 -12 29 -8 29 4 0 2 6 -4 13 -6 6 -10 14 -10 17 -1 3 -6
19 -12 35 -14 40 -17 49 -19 57 -1 4 -10 28 -21 53 -11 25 -17 45 -14 45 2 0
-1 10 -8 23 -6 12 -13 31 -15 42 -2 11 -8 21 -13 23 -5 2 -6 10 -3 18 3 8 0
14 -6 14 -6 0 -8 7 -5 15 4 8 1 15 -5 15 -6 0 -10 3 -9 8 3 8 -38 128 -52 154
-6 10 -10 27 -10 38 0 11 -3 20 -7 20 -5 0 -19 36 -33 80 -13 44 -27 80 -30
80 -5 0 -9 18 -12 57 -1 7 -5 10 -10 7 -4 -3 -8 5 -8 18 -1 53 -4 53 -298 53
-163 0 -273 -4 -275 -10z"/>
<path d="M12076 9082 c-3 -2 -24 -5 -48 -7 -59 -5 -188 -40 -246 -66 -26 -12
-50 -21 -54 -21 -5 1 -8 -3 -8 -10 0 -6 -3 -9 -6 -5 -6 5 -71 -32 -108 -63
-45 -37 -126 -120 -126 -130 0 -5 -4 -10 -10 -10 -5 0 -10 -6 -10 -14 0 -8 -7
-16 -15 -20 -8 -3 -15 -12 -15 -21 0 -14 -18 -54 -30 -65 -6 -5 -28 -89 -37
-142 -8 -42 -8 -162 -1 -208 8 -49 47 -150 59 -150 5 0 9 -5 9 -11 0 -14 76
-89 91 -89 7 0 9 -3 6 -7 -4 -4 5 -13 20 -20 16 -7 53 -27 83 -43 57 -32 151
-69 185 -75 11 -2 37 -10 57 -19 21 -9 40 -16 43 -16 3 0 6 0 8 -1 1 0 13 -2
26 -5 14 -2 30 -9 36 -14 7 -5 15 -7 18 -4 3 3 12 2 19 -2 13 -9 15 -9 59 -18
14 -3 45 -12 68 -20 22 -9 41 -13 41 -9 0 3 7 0 15 -7 9 -7 18 -10 22 -7 3 3
18 0 34 -9 16 -8 29 -11 29 -7 0 4 5 2 12 -5 7 -7 18 -12 24 -12 7 0 25 -5 41
-12 15 -7 33 -12 38 -13 6 0 20 -6 31 -13 12 -6 24 -8 28 -5 3 3 6 1 6 -5 0
-7 6 -12 13 -12 16 0 67 -44 67 -58 0 -6 5 -12 10 -14 16 -5 26 -85 17 -138
-5 -32 -46 -88 -76 -106 -17 -10 -31 -22 -31 -27 0 -4 -4 -6 -9 -2 -5 3 -12 1
-16 -5 -4 -6 -11 -8 -16 -5 -5 4 -9 1 -9 -5 0 -6 -4 -8 -10 -5 -5 3 -16 3 -22
-2 -20 -12 -36 -14 -133 -15 -127 -2 -205 4 -205 15 0 5 -9 7 -20 4 -11 -3
-20 -1 -20 5 0 5 -4 7 -9 4 -8 -5 -98 21 -158 46 -16 6 -30 12 -33 13 -11 3
-85 40 -90 45 -3 3 -30 17 -60 32 -30 15 -83 45 -117 67 l-61 40 -19 -35 c-10
-20 -22 -44 -28 -55 -5 -10 -13 -19 -17 -19 -5 0 -8 -7 -8 -15 0 -8 -4 -15
-10 -15 -5 0 -10 -4 -10 -9 0 -9 -58 -109 -70 -121 -14 -14 -32 -60 -28 -72 3
-7 32 -31 64 -53 33 -22 61 -43 62 -47 2 -5 10 -8 17 -8 8 0 20 -7 29 -15 8
-9 18 -16 20 -16 22 -2 46 -13 46 -20 0 -5 3 -8 8 -7 4 1 28 -7 53 -19 26 -11
64 -27 85 -33 22 -7 48 -16 59 -20 38 -15 58 -21 94 -26 20 -3 41 -9 46 -12 6
-4 19 -8 30 -9 11 -2 34 -5 50 -8 73 -12 145 -19 202 -19 35 -1 63 -5 63 -9 0
-5 5 -5 11 -2 16 11 69 12 69 2 0 -4 4 -5 10 -2 9 5 117 17 160 18 8 0 20 3
25 7 6 4 20 6 33 5 12 -1 22 2 22 7 0 5 4 7 9 4 4 -3 31 3 59 13 28 10 53 16
56 13 3 -3 6 1 6 8 0 7 3 11 6 8 6 -6 75 19 84 31 3 3 25 17 49 30 24 13 54
32 65 42 74 68 94 88 89 93 -4 3 1 6 11 6 9 0 15 4 11 9 -3 5 2 17 12 26 23
23 73 126 67 137 -3 4 -1 8 4 8 5 0 9 6 10 13 2 31 9 64 14 72 10 17 5 235 -5
235 -5 0 -7 9 -4 20 3 11 1 23 -4 26 -5 3 -7 10 -4 15 4 5 2 9 -2 9 -5 0 -15
16 -22 36 -7 20 -20 44 -30 54 -9 10 -21 25 -27 32 -24 28 -102 93 -115 96 -8
2 -15 8 -17 13 -2 5 -10 9 -17 9 -7 0 -15 4 -17 8 -6 15 -242 109 -260 104 -5
-1 -8 3 -8 10 0 6 -3 9 -6 5 -3 -3 -24 1 -46 9 -23 8 -51 16 -64 18 -21 4 -74
20 -114 34 -8 3 -22 6 -31 7 -9 1 -29 6 -45 10 -16 5 -35 7 -41 6 -7 -1 -13 3
-13 9 0 6 -4 9 -9 6 -8 -5 -43 3 -91 21 -8 3 -23 8 -34 10 -64 12 -193 94
-186 118 1 4 -3 11 -10 15 -19 12 -16 130 5 170 28 54 91 101 155 115 8 2 15
4 15 5 0 14 195 20 254 7 25 -5 54 -9 64 -9 9 1 17 -4 17 -9 0 -6 4 -8 9 -5
10 6 99 -22 119 -37 6 -5 12 -6 12 -2 0 4 7 2 15 -5 8 -7 15 -9 15 -4 0 5 4 5
8 -1 4 -5 37 -25 75 -44 37 -19 67 -38 67 -43 0 -4 6 -8 13 -8 7 0 23 -9 34
-19 12 -11 24 -17 27 -14 3 4 6 1 6 -5 0 -24 28 -11 40 17 6 16 18 32 26 35 8
3 14 10 14 16 0 5 23 41 50 80 28 39 50 75 50 80 0 6 4 10 8 10 5 0 17 16 28
35 l19 36 -40 34 c-22 19 -43 35 -48 35 -4 0 -17 9 -28 19 -32 29 -200 110
-274 131 -22 6 -47 14 -55 17 -23 9 -121 29 -198 39 -45 7 -301 12 -306 6z"/>
<path d="M14636 9082 c-2 -2 -34 -5 -71 -7 -36 -3 -70 -7 -74 -10 -5 -2 -26
-7 -47 -9 -21 -3 -65 -14 -96 -25 -32 -11 -58 -18 -58 -15 0 2 -11 -3 -25 -12
-14 -9 -25 -13 -25 -9 0 5 -8 1 -18 -8 -10 -10 -22 -14 -25 -10 -4 3 -7 2 -7
-4 0 -6 -11 -13 -23 -17 -21 -5 -54 -26 -204 -127 -14 -9 -24 -19 -24 -23 1
-3 -2 -7 -6 -8 -13 -5 -76 -74 -117 -128 -22 -30 -43 -57 -47 -60 -8 -7 -22
-44 -21 -52 1 -5 -3 -8 -8 -8 -9 0 -59 -97 -61 -117 -1 -5 -6 -17 -12 -28 -6
-11 -12 -26 -14 -32 -6 -24 -10 -38 -16 -53 -4 -8 -9 -26 -11 -40 -3 -14 -10
-47 -16 -75 -13 -56 -17 -306 -6 -375 10 -65 47 -203 59 -217 5 -7 6 -13 2
-13 -4 0 -2 -6 4 -13 6 -8 8 -17 4 -20 -3 -4 -1 -7 5 -7 7 0 12 -9 12 -20 0
-11 5 -20 10 -20 6 0 9 -4 8 -8 -4 -11 69 -134 98 -165 13 -14 24 -30 24 -34
0 -4 14 -21 30 -37 17 -16 30 -33 30 -38 0 -5 5 -6 10 -3 6 3 10 -1 10 -9 0
-9 7 -16 16 -16 8 0 12 -4 9 -10 -3 -5 0 -10 7 -10 8 0 21 -8 29 -17 9 -10 26
-25 39 -33 12 -8 28 -20 35 -27 7 -7 15 -9 19 -6 3 4 6 1 6 -5 0 -7 7 -12 15
-12 8 0 15 -4 15 -10 0 -5 11 -12 25 -16 14 -3 25 -10 25 -15 0 -5 3 -8 8 -7
4 1 32 -9 62 -24 129 -59 268 -90 417 -92 35 -1 63 -5 63 -9 0 -5 5 -5 11 -2
17 11 69 12 69 2 0 -6 5 -6 13 0 6 5 35 9 62 9 28 -1 52 2 55 5 3 4 21 8 40
10 19 2 40 6 45 9 6 3 17 6 25 5 8 -1 27 5 42 12 15 7 31 13 35 13 15 0 78 23
124 46 26 13 52 24 58 24 6 0 11 3 11 8 0 4 32 25 70 47 37 22 66 43 64 47 -3
4 1 8 8 8 7 1 31 19 53 40 22 22 43 40 48 40 4 0 7 5 7 10 0 6 10 21 23 33 30
30 77 93 77 105 0 6 7 12 15 16 8 3 15 10 15 15 0 6 13 32 28 58 16 26 29 50
30 53 2 9 15 44 38 102 12 31 20 59 17 62 -3 2 -1 11 3 18 5 7 9 15 10 18 1 8
13 71 20 105 16 85 11 281 -10 392 -5 24 -36 134 -43 153 -4 8 -5 18 -5 23 1
4 -3 7 -10 7 -6 0 -8 3 -5 7 4 3 2 12 -4 20 -6 7 -9 13 -6 13 3 0 -12 32 -34
71 -21 40 -39 74 -39 77 0 2 -8 12 -17 21 -10 9 -22 23 -28 32 -33 51 -72 98
-82 99 -6 0 -15 9 -18 21 -4 11 -9 18 -12 16 -2 -3 -21 11 -42 32 -20 20 -46
41 -56 48 -128 80 -169 103 -222 126 -35 14 -63 24 -63 20 0 -3 -6 -1 -13 5
-11 10 -46 20 -87 26 -9 1 -20 5 -25 8 -11 6 -93 20 -140 24 -16 1 -30 3 -30
4 0 3 -186 6 -189 2z m193 -466 c19 -4 41 -11 50 -15 17 -10 23 -11 47 -11 8
0 12 -4 9 -10 -3 -5 1 -10 10 -10 35 0 185 -120 185 -149 0 -7 5 -9 10 -6 6 3
10 -1 10 -9 0 -8 7 -22 16 -30 8 -9 12 -16 7 -16 -4 0 -3 -4 3 -8 25 -17 67
-136 85 -235 11 -65 8 -197 -5 -262 -19 -90 -75 -221 -114 -265 -57 -66 -92
-102 -92 -95 0 4 -8 -2 -19 -13 -10 -12 -23 -22 -30 -22 -6 0 -11 -4 -11 -9 0
-5 -12 -12 -27 -16 -15 -3 -30 -11 -33 -16 -3 -4 -15 -10 -25 -12 -11 -2 -40
-9 -65 -16 -55 -16 -169 -21 -192 -9 -11 5 -18 5 -18 -1 0 -9 -171 45 -180 57
-3 4 -27 23 -55 42 -27 19 -61 48 -74 63 -14 16 -31 35 -38 42 -7 8 -13 18
-13 24 0 6 -4 11 -8 11 -5 0 -14 16 -22 35 -8 19 -18 35 -22 35 -5 0 -6 5 -3
10 3 6 1 10 -5 10 -6 0 -10 6 -8 13 1 6 -3 22 -10 34 -7 12 -11 26 -10 30 0 4
-2 19 -5 33 -4 14 -10 39 -13 55 -7 38 -8 210 0 250 3 17 7 38 9 47 2 10 6 21
10 24 4 4 7 17 7 29 0 12 3 25 8 29 4 4 7 11 8 14 0 4 7 21 14 37 7 17 13 33
12 38 -1 4 2 7 8 7 6 0 10 6 10 14 0 8 4 16 8 18 5 2 23 23 40 47 18 24 32 42
32 39 0 -3 21 15 46 38 25 24 50 41 55 38 5 -3 9 -1 9 5 0 6 11 13 25 17 14 3
25 10 25 14 0 4 12 10 28 14 15 3 49 12 76 19 49 14 172 15 235 3z"/>
<path d="M18756 9083 c-1 -2 -31 -5 -67 -8 -85 -7 -108 -12 -209 -37 -47 -11
-92 -21 -100 -22 -9 -1 -22 -6 -30 -11 -8 -5 -23 -10 -33 -10 -10 -1 -22 -6
-25 -12 -4 -6 -15 -9 -24 -7 -10 1 -18 -2 -18 -7 0 -5 -5 -9 -10 -9 -6 0 -27
-7 -48 -17 -20 -9 -40 -15 -44 -15 -5 1 -8 -3 -8 -9 0 -5 -4 -8 -8 -5 -5 3
-19 -4 -30 -15 -12 -10 -24 -19 -27 -19 -10 1 -70 -33 -76 -42 -3 -5 -10 -10
-15 -11 -14 -1 -35 -25 -26 -29 5 -2 28 -43 52 -93 25 -49 49 -93 55 -97 5 -4
7 -8 3 -8 -6 0 29 -75 50 -108 7 -10 21 -6 63 20 30 18 57 37 60 41 3 5 8 8
10 7 6 -2 43 13 49 19 11 12 166 78 201 85 8 2 21 6 29 9 8 3 29 9 45 13 17 4
37 9 45 12 40 11 282 10 329 -3 28 -7 51 -11 51 -8 0 4 9 -2 21 -13 12 -10 22
-18 23 -17 4 7 46 -11 46 -20 0 -6 3 -8 6 -4 17 16 134 -123 137 -163 1 -11 4
-20 7 -20 4 0 7 -6 8 -12 1 -7 4 -26 8 -43 9 -47 11 -226 2 -231 -4 -3 -8 0
-8 6 0 6 -4 9 -9 5 -5 -3 -12 -1 -16 5 -3 5 -17 10 -30 10 -13 0 -26 4 -29 8
-3 5 -19 9 -35 10 -16 0 -38 5 -49 11 -10 5 -43 12 -73 15 -30 3 -65 8 -79 11
-29 7 -314 8 -348 1 -12 -3 -27 -8 -32 -11 -6 -3 -10 -1 -10 6 0 8 -4 8 -15
-1 -8 -7 -15 -10 -15 -7 0 3 -26 -2 -57 -10 -32 -8 -65 -16 -73 -18 -49 -11
-179 -67 -221 -96 -14 -10 -29 -16 -33 -12 -3 3 -6 1 -6 -4 0 -6 -20 -24 -44
-39 -25 -16 -43 -31 -40 -35 2 -4 -5 -11 -17 -14 -11 -4 -19 -9 -16 -11 2 -3
-11 -21 -29 -41 -38 -41 -107 -167 -97 -177 3 -3 0 -6 -7 -6 -7 0 -10 -3 -7
-6 3 -4 2 -14 -3 -24 -13 -24 -30 -167 -22 -183 2 -5 6 -36 8 -69 2 -33 13
-79 23 -103 11 -24 17 -46 13 -49 -3 -3 0 -6 7 -6 7 0 10 -4 7 -9 -3 -5 5 -25
19 -45 13 -20 22 -36 19 -36 -2 0 4 -10 16 -22 11 -12 30 -37 43 -55 12 -18
28 -33 35 -33 7 0 10 -4 7 -10 -3 -5 1 -10 9 -10 8 0 19 -6 23 -13 10 -16 94
-77 106 -77 4 0 15 -7 23 -15 9 -8 24 -15 34 -15 10 0 22 -4 25 -10 3 -5 15
-10 26 -10 10 0 19 -5 19 -12 0 -6 3 -9 6 -6 3 4 20 2 37 -3 18 -6 52 -12 77
-15 25 -3 52 -10 61 -15 9 -4 18 -6 21 -4 8 8 78 12 78 4 0 -5 11 -4 25 1 18
7 25 6 25 -3 0 -7 3 -8 8 -2 4 6 18 11 32 12 14 1 41 3 60 4 19 1 40 5 45 8 6
3 15 6 20 7 54 10 77 17 139 40 39 15 78 33 86 40 8 7 27 16 43 19 15 4 27 10
27 14 0 4 12 13 28 20 15 7 34 19 42 27 8 8 32 27 52 43 21 16 36 30 34 32 -2
2 11 15 29 29 19 14 38 35 44 48 13 26 30 29 32 5 4 -50 7 -78 9 -78 1 0 4
-13 6 -30 11 -67 89 -167 142 -181 12 -3 22 -10 22 -14 0 -20 254 -36 278 -17
8 6 12 6 12 -2 0 -7 8 -8 26 -1 14 6 37 10 50 10 14 0 31 6 37 13 14 14 18
127 4 127 -4 0 -5 6 -1 12 5 7 8 79 9 161 l0 148 -36 9 c-45 12 -77 40 -83 71
-3 13 -5 24 -7 24 -1 0 -3 176 -4 390 -2 395 -7 492 -24 538 -5 14 -7 28 -4
31 3 3 1 12 -5 19 -7 8 -9 17 -5 20 3 4 0 13 -7 22 -7 8 -9 15 -4 15 4 0 3 5
-4 12 -7 7 -12 20 -12 30 0 10 -5 18 -12 18 -6 0 -8 3 -5 6 7 7 -42 97 -55
102 -4 2 -8 9 -8 15 0 7 -14 27 -30 46 -17 18 -30 38 -30 44 0 6 -3 8 -6 5 -3
-3 -15 4 -28 16 -52 50 -159 123 -189 129 -7 1 -14 4 -17 8 -6 6 -90 38 -105
40 -5 0 -16 5 -22 11 -7 6 -13 8 -13 5 0 -3 -24 1 -52 9 -70 18 -132 27 -195
28 -29 1 -53 3 -53 6 0 5 -169 8 -174 3z m189 -1133 c0 -1 16 -3 35 -5 19 -3
51 -8 70 -11 19 -4 41 -6 48 -5 6 1 12 -3 12 -9 0 -6 4 -9 9 -6 9 6 120 -23
137 -35 7 -6 10 -58 9 -146 -1 -153 -3 -161 -27 -184 -10 -9 -18 -21 -18 -28
0 -6 -3 -11 -7 -11 -5 0 -31 -22 -59 -48 -51 -47 -172 -116 -203 -115 -9 0
-22 -4 -28 -10 -7 -5 -13 -6 -13 -2 0 4 -6 3 -12 -2 -7 -6 -27 -9 -45 -8 -18
1 -30 -2 -27 -6 6 -10 -188 -9 -201 1 -5 4 -27 10 -47 14 -21 4 -38 12 -38 18
0 6 -3 8 -7 5 -3 -4 -17 3 -30 15 -13 12 -23 18 -23 14 0 -12 -60 54 -85 95
-43 67 -49 179 -14 253 17 37 99 137 99 122 0 -3 9 2 19 11 34 29 147 70 213
77 10 1 20 4 22 7 4 4 211 3 211 -1z"/>
<path d="M20422 9075 c-9 -14 -9 -2144 0 -2158 5 -8 8 -9 8 -1 0 11 68 11 97
0 7 -3 13 -2 13 2 0 4 36 7 80 7 44 0 80 -4 80 -8 0 -5 5 -5 11 -2 17 11 69
12 69 1 0 -6 5 -5 12 2 7 7 17 8 30 1 13 -7 18 -6 18 2 0 8 4 8 13 1 8 -7 18
-7 27 -2 9 5 19 5 27 -2 9 -7 13 -7 13 0 0 6 6 9 14 6 8 -3 17 -1 20 5 4 6 7
97 6 203 0 106 -1 202 -1 213 0 11 0 40 0 65 -1 119 0 564 1 590 1 14 2 32 1
40 -4 132 0 170 24 217 13 26 25 44 25 38 0 -5 5 -2 11 7 5 10 10 20 9 23 -1
16 146 135 168 135 5 0 15 7 22 15 6 8 15 14 18 13 4 -1 17 3 30 10 12 7 22
10 22 7 0 -3 11 2 25 11 13 8 29 13 34 10 5 -4 12 -2 15 3 3 5 23 12 43 16 21
5 45 9 53 11 46 10 82 14 144 19 38 2 72 7 75 10 3 3 5 114 6 247 0 276 8 256
-99 252 -96 -4 -266 -52 -266 -75 0 -6 -4 -7 -10 -4 -5 3 -10 1 -10 -5 0 -6
-4 -8 -10 -5 -5 3 -10 1 -10 -5 0 -6 -4 -9 -9 -5 -6 3 -14 -3 -20 -12 -6 -10
-11 -15 -11 -10 0 7 -14 -4 -70 -55 -17 -14 -30 -24 -30 -21 0 10 -130 -133
-136 -149 -3 -10 -9 -18 -12 -18 -4 0 -16 -16 -26 -35 -11 -19 -23 -35 -28
-35 -5 0 -6 -4 -3 -10 3 -5 0 -10 -7 -10 -11 0 -14 42 -13 221 0 132 -4 223
-10 227 -17 11 -476 8 -483 -3z"/>
</g>
</svg>
